<svg width="391" height="381" viewBox="0 0 391 381" fill="none" xmlns="http://www.w3.org/2000/svg">
<path d="M364.5 184.5C364.5 186.778 363.403 189.052 361.208 191.306C359.012 193.561 355.746 195.76 351.497 197.87C343 202.09 330.672 205.904 315.398 209.113C284.858 215.528 242.644 219.5 196 219.5C149.356 219.5 107.142 215.528 76.6017 209.113C61.3276 205.904 49.0001 202.09 40.5033 197.87C36.2539 195.76 32.9884 193.561 30.7916 191.306C28.5966 189.052 27.5 186.778 27.5 184.5C27.5 182.222 28.5966 179.948 30.7916 177.694C32.9884 175.439 36.2539 173.24 40.5033 171.13C49.0001 166.91 61.3276 163.096 76.6017 159.887C107.142 153.472 149.356 149.5 196 149.5C242.644 149.5 284.858 153.472 315.398 159.887C330.672 163.096 343 166.91 351.497 171.13C355.746 173.24 359.012 175.439 361.208 177.694C363.403 179.948 364.5 182.222 364.5 184.5Z" stroke="black"/>
<path d="M364.5 209.5C364.5 211.778 363.403 214.052 361.208 216.306C359.012 218.561 355.746 220.76 351.497 222.87C343 227.09 330.672 230.904 315.398 234.113C284.858 240.528 242.644 244.5 196 244.5C149.356 244.5 107.142 240.528 76.6017 234.113C61.3276 230.904 49.0001 227.09 40.5033 222.87C36.2539 220.76 32.9884 218.561 30.7916 216.306C28.5966 214.052 27.5 211.778 27.5 209.5C27.5 207.222 28.5966 204.948 30.7916 202.694C32.9884 200.439 36.2539 198.24 40.5033 196.13C49.0001 191.91 61.3276 188.096 76.6017 184.887C107.142 178.472 149.356 174.5 196 174.5C242.644 174.5 284.858 178.472 315.398 184.887C330.672 188.096 343 191.91 351.497 196.13C355.746 198.24 359.012 200.439 361.208 202.694C363.403 204.948 364.5 207.222 364.5 209.5Z" stroke="black"/>
<path d="M364.5 234.5C364.5 236.778 363.403 239.052 361.208 241.306C359.012 243.561 355.746 245.76 351.497 247.87C343 252.09 330.672 255.904 315.398 259.113C284.858 265.528 242.644 269.5 196 269.5C149.356 269.5 107.142 265.528 76.6017 259.113C61.3276 255.904 49.0001 252.09 40.5033 247.87C36.2539 245.76 32.9884 243.561 30.7916 241.306C28.5966 239.052 27.5 236.778 27.5 234.5C27.5 232.222 28.5966 229.948 30.7916 227.694C32.9884 225.439 36.2539 223.24 40.5033 221.13C49.0001 216.91 61.3276 213.096 76.6017 209.887C107.142 203.472 149.356 199.5 196 199.5C242.644 199.5 284.858 203.472 315.398 209.887C330.672 213.096 343 216.91 351.497 221.13C355.746 223.24 359.012 225.439 361.208 227.694C363.403 229.948 364.5 232.222 364.5 234.5Z" stroke="black"/>
<path d="M116.343 66.6293L116.511 67.5347L117.179 66.9008L164.311 22.177L136.341 80.823L135.945 81.6542L136.858 81.534L201.276 73.0554L144.177 104.061L143.368 104.5L144.177 104.939L201.276 135.945L136.858 127.466L135.945 127.346L136.341 128.177L164.311 186.823L117.179 142.099L116.511 141.465L116.343 142.371L104.5 206.257L92.6571 142.371L92.4892 141.465L91.8213 142.099L44.6888 186.823L72.659 128.177L73.0554 127.346L72.1425 127.466L7.72353 135.945L64.8231 104.939L65.6323 104.5L64.8231 104.061L7.72352 73.0554L72.1425 81.534L73.0554 81.6542L72.659 80.823L44.6888 22.177L91.8213 66.9008L92.4892 67.5347L92.6571 66.6293L104.5 2.74317L116.343 66.6293Z" stroke="black"/>
<path d="M309 118L326.789 163.06L373.11 148.874L348.972 190.877L388.944 218.247L341.055 225.563L344.578 273.879L309 241L273.422 273.879L276.945 225.563L229.056 218.247L269.028 190.877L244.89 148.874L291.211 163.06L309 118Z" fill="#D9D9D9"/>
<path d="M139.194 292.102L162.134 250L185.258 292.102L227.269 315.134L185.258 338.166L162.134 380.269L139.194 338.166L97 315.134L139.194 292.102Z" fill="#B9FF66"/>
<circle cx="289.5" cy="111.5" r="62" fill="black" stroke="black"/>
<ellipse cx="269" cy="98" rx="10" ry="20" fill="white"/>
<ellipse cx="310" cy="98" rx="10" ry="20" fill="white"/>
</svg>
