<svg width="406" height="162" viewBox="0 0 406 162" fill="none" xmlns="http://www.w3.org/2000/svg">
<path d="M39.6177 40.8231C43.472 43.9433 44.9403 43.7598 52.2207 43.2703L120.865 39.1713C122.333 39.1713 121.109 37.703 120.62 37.4582L109.24 29.1989C107.038 27.4859 104.163 25.5893 98.5952 26.0176L32.1537 30.8508C29.7065 31.0955 29.2171 32.3191 30.1959 33.298L39.6177 40.8231ZM43.7167 56.7911V128.984C43.7167 132.838 45.6745 134.306 50.0183 134.061L125.453 129.718C129.797 129.473 130.286 126.781 130.286 123.661V51.9579C130.286 48.8377 129.063 47.1247 126.432 47.3694L47.6322 51.9579C44.6956 52.2026 43.7167 53.6709 43.7167 56.7911ZM118.173 60.7066C118.662 62.9091 118.173 65.0504 115.97 65.2951L112.361 66.0293V119.317C109.179 121.03 106.304 122.009 103.857 122.009C100.002 122.009 99.0234 120.785 96.0868 117.176L72.2878 79.856V115.952L79.8129 117.665C79.8129 117.665 79.8129 122.009 73.7561 122.009L57.054 122.988C56.5645 122.009 57.054 119.623 58.767 119.134L63.1108 117.91V70.1895L57.054 69.7001C56.5645 67.4976 57.7881 64.3774 61.153 64.1327L79.0787 62.9091L103.795 100.718V67.2529L97.4939 66.5187C97.0045 63.8268 98.9623 61.9302 101.348 61.6855L118.173 60.7066ZM26.5251 24.3657L95.6585 19.2878C104.163 18.5536 106.304 19.0431 111.688 22.8974L133.774 38.3759C137.444 41.0679 138.607 41.7409 138.607 44.6775V129.718C138.607 135.04 136.649 138.222 129.858 138.711L49.59 143.544C44.5121 143.789 42.0649 143.055 39.3729 139.69L23.0991 118.583C20.1624 114.729 19 111.792 19 108.427V32.8086C19 28.4648 20.9578 24.8552 26.5251 24.3657Z" fill="black"/>
<path d="M204.987 122.804H196.422L171.705 76.1239V122.804H165.22V70.6177H175.987L198.563 113.199V70.6177H205.048V122.804H204.987Z" fill="black"/>
<path d="M251.667 103.288C251.667 109.651 250.015 114.667 246.773 118.399C243.53 122.07 239.125 123.906 233.619 123.906C228.113 123.906 223.708 122.07 220.404 118.399C217.162 114.729 215.51 109.651 215.51 103.288C215.51 96.9252 217.162 91.8473 220.404 88.1765C223.647 84.5057 228.052 82.6091 233.619 82.6091C239.125 82.6091 243.469 84.4445 246.773 88.1765C250.015 91.8473 251.667 96.9252 251.667 103.288ZM244.876 103.288C244.876 98.21 243.897 94.478 241.878 91.9697C239.921 89.5225 237.167 88.2989 233.619 88.2989C230.071 88.2989 227.256 89.5225 225.299 91.9697C223.341 94.4169 222.362 98.21 222.362 103.288C222.362 108.182 223.341 111.914 225.36 114.423C227.318 116.931 230.132 118.216 233.68 118.216C237.167 118.216 239.921 116.931 241.94 114.423C243.897 111.976 244.876 108.244 244.876 103.288Z" fill="black"/>
<path d="M282.196 122.498C280.972 122.804 279.626 123.11 278.158 123.294C276.689 123.477 275.405 123.6 274.242 123.6C270.265 123.6 267.206 122.498 265.126 120.357C263.046 118.216 262.006 114.79 262.006 110.018V89.2164H257.54V83.7102H262.006V72.4531H268.614V83.7102H282.196V89.2164H268.614V107.02C268.614 109.1 268.675 110.691 268.736 111.853C268.858 113.015 269.164 114.117 269.715 115.096C270.204 116.013 270.938 116.686 271.856 117.115C272.774 117.543 274.12 117.788 275.955 117.788C277.056 117.788 278.158 117.604 279.32 117.298C280.483 116.992 281.339 116.747 281.828 116.503H282.196V122.498V122.498Z" fill="black"/>
<path d="M297.185 77.1642H289.782V70.312H297.185V77.1642ZM296.757 122.804H290.149V83.6492H296.757V122.804Z" fill="black"/>
<path d="M343.193 103.288C343.193 109.651 341.541 114.667 338.298 118.399C335.056 122.07 330.651 123.906 325.144 123.906C319.638 123.906 315.233 122.07 311.93 118.399C308.687 114.729 307.035 109.651 307.035 103.288C307.035 96.9252 308.687 91.8473 311.93 88.1765C315.172 84.5057 319.577 82.6091 325.144 82.6091C330.651 82.6091 334.994 84.4445 338.298 88.1765C341.541 91.8473 343.193 96.9252 343.193 103.288ZM336.34 103.288C336.34 98.21 335.361 94.478 333.343 91.9697C331.385 89.5225 328.632 88.2989 325.083 88.2989C321.535 88.2989 318.721 89.5225 316.763 91.9697C314.805 94.4169 313.826 98.21 313.826 103.288C313.826 108.182 314.805 111.914 316.824 114.423C318.782 116.931 321.596 118.216 325.144 118.216C328.632 118.216 331.385 116.931 333.404 114.423C335.361 111.976 336.34 108.244 336.34 103.288Z" fill="black"/>
<path d="M386.079 122.804H379.472V100.535C379.472 98.7605 379.349 97.0475 379.166 95.4568C378.982 93.8661 378.554 92.6425 378.003 91.786C377.391 90.8071 376.596 90.073 375.495 89.5835C374.394 89.0941 372.986 88.8493 371.212 88.8493C369.438 88.8493 367.541 89.2776 365.584 90.1953C363.626 91.113 361.729 92.2143 359.955 93.6214V122.865H353.348V83.7102H359.955V88.054C362.035 86.341 364.115 84.995 366.318 84.0773C368.52 83.0984 370.784 82.6702 373.109 82.6702C377.33 82.6702 380.573 83.955 382.775 86.4633C384.978 89.0329 386.079 92.7037 386.079 97.4757V122.804V122.804Z" fill="black"/>
</svg>